<svg width="36" height="36" viewBox="0 0 36 36" fill="none" xmlns="http://www.w3.org/2000/svg">
<rect width="36" height="36" rx="8" fill="#FF366C" fill-opacity="0.1"/>
<path opacity="0.4" d="M16.0651 9H15.9361C14.698 8.99997 13.6771 8.99995 12.8691 9.10688C12.0208 9.21915 11.2716 9.46392 10.6717 10.0544C10.0719 10.6449 9.82321 11.3824 9.70916 12.2174C9.60053 13.0128 9.60056 14.0177 9.60059 15.2364V16.1533V16.1544V27H22.4006V16.155V16.1538V16.1527V15.2365C22.4007 14.0178 22.4007 13.0128 22.292 12.2174C22.1779 11.3824 21.9293 10.6449 21.3294 10.0544C20.7295 9.46392 19.9804 9.21915 19.1321 9.10688C18.3241 8.99995 17.3032 8.99997 16.0651 9Z" fill="#FF366C"/>
<path fill-rule="evenodd" clip-rule="evenodd" d="M20.2029 15.5458C20.4847 15.5458 20.6256 15.5458 20.7131 15.4602C20.8006 15.3746 20.8004 15.2372 20.7998 14.9624C20.7977 13.8648 20.7843 12.9764 20.7034 12.382C20.6123 11.7128 20.4516 11.4029 20.2379 11.1919C20.0243 10.981 19.7102 10.8223 19.0324 10.7324C18.3269 10.6387 17.3849 10.6367 15.9999 10.6367C14.6151 10.6367 13.673 10.6387 12.9675 10.7324C12.2897 10.8223 11.9757 10.981 11.762 11.1919C11.5483 11.4029 11.3876 11.7128 11.2965 12.382C11.2156 12.9764 11.2022 13.8648 11.2 14.9624C11.1995 15.2372 11.1992 15.3746 11.2867 15.4602C11.3742 15.5458 11.5152 15.5458 11.797 15.5458H20.2029Z" fill="#FF366C"/>
<path fill-rule="evenodd" clip-rule="evenodd" d="M16.8568 18.1697C17.2064 18.4452 17.2719 18.9589 17.0029 19.317L16.4076 20.1098L16.7494 20.1842C17.5441 20.357 17.8983 21.3678 17.3008 22.0043L15.9193 23.4761C15.6136 23.8019 15.1079 23.8121 14.7899 23.4989C14.4719 23.1857 14.462 22.6678 14.7678 22.342L15.4817 21.5814L15.2513 21.5312C14.507 21.3694 14.1299 20.4592 14.6232 19.8023L15.7367 18.3194C16.0057 17.9612 16.5071 17.8942 16.8568 18.1697Z" fill="#FF366C"/>
<path fill-rule="evenodd" clip-rule="evenodd" d="M8 26.1815C8 25.7296 8.39797 25.3633 8.88889 25.3633H23.1111C23.602 25.3633 24 25.7296 24 26.1815C24 26.6333 23.602 26.9996 23.1111 26.9996H8.88889C8.39797 26.9996 8 26.6333 8 26.1815Z" fill="#FF366C"/>
<path fill-rule="evenodd" clip-rule="evenodd" d="M22.4004 20.8057V18.9356H23.2217L23.2822 18.9355C23.4927 18.9348 23.7505 18.934 23.9842 18.9993C24.6026 19.1723 25.0856 19.6764 25.2513 20.3217C25.3139 20.5656 25.3131 20.8347 25.3125 21.0543L25.3123 21.1174V22.2083C25.3123 22.4665 25.5129 22.6759 25.7603 22.6759C26.0078 22.6759 26.2083 22.4665 26.2083 22.2083V16.3278C26.2083 15.7112 26.1995 15.5926 26.1698 15.4906C26.1403 15.3886 26.0846 15.2848 25.7569 14.7718L25.0639 13.6868C24.9195 13.4609 24.6765 13.3252 24.4163 13.3252C23.9216 13.3252 23.5204 12.9066 23.5204 12.3901C23.5204 11.8737 23.9216 11.4551 24.4163 11.4551C25.2757 11.4551 26.0782 11.9033 26.5548 12.6495L27.2479 13.7344L27.2983 13.8133C27.5477 14.2027 27.7685 14.5475 27.8849 14.9487C28.0013 15.3498 28.0009 15.7646 28.0003 16.2329L28.0002 16.3278V22.2083C28.0002 23.4994 26.9975 24.546 25.7603 24.546C24.5232 24.546 23.5204 23.4994 23.5204 22.2083V21.1174C23.5204 20.964 23.5202 20.8802 23.5175 20.8191L23.517 20.8092L23.5076 20.8087C23.4491 20.8059 23.3688 20.8057 23.2217 20.8057H22.4004Z" fill="#FF366C"/>
</svg>
